# xmcd
#
# Track frame offsets: 
#        150
#        14197
#        26209
#        44073
#        60939
#        79370
#        90191
#        106684
#        118200
#        131461
#        145580
#        171588
#
# Disc length: 3451 seconds
#
# Revision: 2
# Processed by: cddbd v1.5.2PL0 Copyright (c) Steve Scherf et al.
# Submitted via: ExactAudioCopy v0.99pb4
#
DISCID=a30d790c
DTITLE=Booker T. and The M.G.'s - Soul Limbo
DYEAR=1968
DGENRE=Instrumental Rock
TTITLE0=Be Young, Be Foolish, Be Happy
TTITLE1=La La Means I Love You
TTITLE2=Hang 'Em High
TTITLE3=Willow Weep For Me
TTITLE4=Over Easy
TTITLE5=Soul Limbo
TTITLE6=Eleanor Rigby
TTITLE7=Heads Or Tails
TTITLE8=(Sweet, Sweet, Baby) Since You've Been Gone
TTITLE9=Born Under A Bad Sign
TTITLE10=Foxy Lady
TTITLE11=Multimedia-Track
EXTD=© 1999\nLabel: Stax Records (Fantasy Inc.]\nSCD24 4113-2\n24 BIT 
EXTD=Remastered
EXTT0=
EXTT1=
EXTT2=
EXTT3=
EXTT4=
EXTT5=
EXTT6=
EXTT7=
EXTT8=
EXTT9=
EXTT10=
EXTT11=
PLAYORDER=
